<?xml version="1.0" encoding="UTF-8"?>
<svg xmlns="http://www.w3.org/2000/svg" width="1800" height="2280" viewBox="0 0 1800 2280">
  <defs><style>
  text { font-family: "PingFang SC", "Heiti SC", "Microsoft YaHei", "Noto Sans CJK SC", sans-serif; }
  .t1 { font-size: 26px; font-weight: bold; fill: #1a252f; }
  .t2 { font-size: 13px; fill: #566573; }
  .zt { font-size: 14px; font-weight: bold; fill: #ffffff; }
  .bt { font-size: 12px; font-weight: bold; fill: #1a252f; }
  .sm { font-size: 11px; fill: #333333; }
  .hi { font-size: 10px; fill: #666666; }
</style></defs>
  <rect width="1800" height="2280" fill="#fafbfc"/>
  <text x="900" y="42" text-anchor="middle" class="t1">FactoryOS 技术架构图</text>
  <text x="900" y="68" text-anchor="middle" class="t2">模块映射 · 技术栈 · AI 边界 · 部署映射 · v2.0 · ADR-001/004/007</text>

  <!-- frontend -->
  <rect x="40" y="92" width="1720" height="88" rx="8" fill="#fadbd8" stroke="#c0392b" stroke-width="2"/>
  <rect x="40" y="92" width="1720" height="26" rx="8" fill="#922b21"/>
  <text x="56" y="110" class="zt">前端（Phase 1 后半 · React 18 + TypeScript + Vite）</text>
  <rect x="56" y="126" width="380" height="44" rx="6" fill="#fff" stroke="#c0392b"/>
  <text x="68" y="146" class="bt">apps/web-admin</text>
  <text x="68" y="162" class="sm">PC 管理 · Graph freeze · Studio /studio/*</text>
  <rect x="452" y="126" width="380" height="44" rx="6" fill="#fff" stroke="#c0392b"/>
  <text x="464" y="146" class="bt">apps/h5-worker</text>
  <text x="464" y="162" class="sm">钉钉/企微 H5 壳 · Harness 确认门</text>
  <rect x="848" y="126" width="380" height="44" rx="6" fill="#fff5f5" stroke="#e74c3c" stroke-dasharray="4"/>
  <text x="860" y="146" class="bt">感知多模态</text>
  <text x="860" y="162" class="sm">语音/图片/扫码 → OSS 短期存储</text>
  <text x="1260" y="154" class="sm">HTTPS → apps/api（OpenAPI v1.1.1）</text>

  <!-- api -->
  <rect x="40" y="196" width="1720" height="56" rx="8" fill="#d5e8d4" stroke="#82b366" stroke-width="2"/>
  <text x="56" y="222" class="bt">apps/api — FastAPI + Uvicorn · 唯一生产 deployable · HTTP 适配层（无业务规则）</text>
  <text x="56" y="240" class="hi">structlog JSON · OTel spans · tenant_id 上下文 · pyright/mypy 严格</text>

  <!-- os_core L0 -->
  <rect x="40" y="268" width="1200" height="200" rx="8" fill="#d5f5e3" stroke="#1e8449" stroke-width="2"/>
  <rect x="40" y="268" width="1200" height="26" rx="8" fill="#1e8449"/>
  <text x="56" y="286" class="zt">os_core/ L0 信任内核（零 LLM）</text>
  <rect x="56" y="302" width="270" height="72" rx="6" fill="#fff" stroke="#27ae60"/>
  <text x="68" y="322" class="bt">graph_service</text>
  <text x="68" y="340" class="sm">SQLAlchemy async · Graph 版本</text>
  <text x="68" y="356" class="hi">draft → in_review → frozen</text>
  <rect x="342" y="302" width="270" height="72" rx="6" fill="#fff" stroke="#27ae60"/>
  <text x="354" y="322" class="bt">rule_engine</text>
  <text x="354" y="340" class="sm">Pydantic RuleSet · evaluate API</text>
  <text x="354" y="356" class="hi">默认 deny · allow 显式</text>
  <rect x="628" y="302" width="290" height="72" rx="6" fill="#fff" stroke="#27ae60"/>
  <text x="640" y="322" class="bt">execution_service</text>
  <text x="640" y="340" class="sm">Saga · Compensator · 幂等键</text>
  <text x="640" y="356" class="hi">唯一 connector.write 调用方</text>
  <rect x="934" y="302" width="290" height="72" rx="6" fill="#fff" stroke="#27ae60"/>
  <text x="946" y="322" class="bt">audit_service</text>
  <text x="946" y="340" class="sm">append-only · AuditEvent</text>
  <text x="946" y="356" class="hi">ExecutionEvidence E-09</text>
  <rect x="56" y="386" width="1168" height="68" rx="6" fill="#eafaf1" stroke="#1e8449"/>
  <text x="68" y="408" class="bt">shared_contracts</text>
  <text x="68" y="426" class="sm">Pydantic v2 + jsonschema · 15 JSON Schema 加载 · 错误码 · DomainEvent 类型 · tenant/cell 上下文</text>
  <text x="68" y="444" class="hi">全模块依赖基底 · 禁止 import 其他 os_core</text>

  <!-- L2 AI -->
  <rect x="40" y="484" width="780" height="120" rx="8" fill="#fdebd0" stroke="#d68910" stroke-width="3"/>
  <rect x="40" y="484" width="780" height="26" rx="8" fill="#d35400"/>
  <text x="56" y="502" class="zt">os_core/ L2 体验层 — 唯一允许 LLM 的区域</text>
  <rect x="56" y="518" width="360" height="76" rx="6" fill="#fff" stroke="#d68910"/>
  <text x="68" y="538" class="bt">agent_orchestrator</text>
  <text x="68" y="556" class="sm">LangGraph StateGraph · LiteLLM 路由</text>
  <text x="68" y="572" class="sm">输出 DSL 计划 JSON · 禁止 import connector write</text>
  <rect x="432" y="518" width="360" height="76" rx="6" fill="#fff" stroke="#d68910"/>
  <text x="444" y="538" class="bt">license_service</text>
  <text x="444" y="556" class="sm">Pack 授权校验 · Phase 1 stub</text>
  <text x="444" y="572" class="hi">未授权 capability → 403</text>

  <!-- L1 -->
  <rect x="840" y="484" width="920" height="120" rx="8" fill="#d6eaf8" stroke="#2874a6" stroke-width="2"/>
  <rect x="840" y="484" width="920" height="26" rx="8" fill="#1a5276"/>
  <text x="856" y="502" class="zt">os_core/ L1 连接层 GIP（零 LLM）</text>
  <rect x="856" y="518" width="420" height="76" rx="6" fill="#fff" stroke="#2874a6"/>
  <text x="868" y="538" class="bt">connector_sdk</text>
  <text x="868" y="556" class="sm">httpx async · Registry · Blueprint Runtime</text>
  <text x="868" y="572" class="hi">10 LegacySystem + vendor 注册</text>
  <rect x="1292" y="518" width="420" height="76" rx="6" fill="#fff" stroke="#2874a6"/>
  <text x="1304" y="538" class="bt">mcp_gateway</text>
  <text x="1304" y="556" class="sm">MCP JSON-RPC · CMV tools/list</text>
  <text x="1304" y="572" class="hi">tools/call → DslPlan only · Y1 末 GA</text>

  <!-- integration -->
  <rect x="40" y="620" width="1720" height="88" rx="8" fill="#e8daef" stroke="#8e44ad" stroke-width="2"/>
  <rect x="40" y="620" width="1720" height="26" rx="8" fill="#7d3c98"/>
  <text x="56" y="638" class="zt">integration/ — GIP 外置（集成团队只改此目录 · Core tag 后 major 不变）</text>
  <text x="56" y="666" class="sm">catalog/ Blueprint 样例 · packs/ Graph/Conn/Skill Pack · tenants/ Override · tools/connector-agent/ S2 AI 辅助</text>
  <text x="56" y="684" class="hi">遵守 os_core-public-api · 仅 Registry + BlueprintRuntime 公开面 · edge-agent P1 PoC</text>

  <!-- infra -->
  <rect x="40" y="724" width="860" height="200" rx="8" fill="#fff2cc" stroke="#d6b656" stroke-width="2"/>
  <text x="56" y="752" class="bt">数据与中间件</text>
  <text x="56" y="776" class="sm">PostgreSQL 16 + SQLAlchemy 2.0 async + asyncpg — Data-L1/L2 · 全表 tenant_id</text>
  <text x="56" y="796" class="sm">W1 预埋：cell_id · placement_tier · connector_instances · outbox_events · tenant_quotas</text>
  <text x="56" y="816" class="sm">Redis/Tair — 会话 · 限流 · S0 进程内队列 → S1 Redis Streams（ADR-007）</text>
  <text x="56" y="836" class="sm">OSS — 语音/图片 30d TTL · 不进 PG</text>
  <text x="56" y="856" class="sm">Alembic 迁移 · pytest + httpx ASGI · contract tests</text>
  <text x="56" y="876" class="hi">B-Lite builtin 表也在 RDS · 模拟 Data-L0</text>
  <text x="56" y="900" class="hi">Data-L3 分析池选配 · 非默认</text>

  <!-- cloud -->
  <rect x="920" y="724" width="840" height="200" rx="8" fill="#ebf5fb" stroke="#2e86ab" stroke-width="2"/>
  <text x="936" y="752" class="bt">阿里云部署映射（Y1）</text>
  <text x="936" y="776" class="sm">生产：SLB → ECS(Uvicorn×4) → RDS 生产 + Redis + OSS</text>
  <text x="936" y="796" class="sm">测试：ECS(GitLab+Runner+staging+Redoc) → RDS 测试 · 禁止连生产库</text>
  <text x="936" y="816" class="sm">S0：单 Monolith + 单 RDS（1-10 tenant）</text>
  <text x="936" y="836" class="sm">S1：Pool + RLS + Outbox Worker · 读副本</text>
  <text x="936" y="856" class="sm">S2：Cell Router + 多 ECS/RDS · connector_worker 可选</text>
  <text x="936" y="876" class="sm">S3：Silo 独立栈复制 10 拓扑 · Enterprise 合同</text>
  <text x="936" y="900" class="hi">LiteLLM/ASR/OCR 出站 API · Cursor 研发本机</text>

  <!-- AI boundary -->
  <rect x="40" y="944" width="1720" height="130" rx="8" fill="#fff5f5" stroke="#e74c3c" stroke-width="2"/>
  <rect x="40" y="944" width="1720" height="26" rx="8" fill="#c0392b"/>
  <text x="56" y="962" class="zt">AI 边界与写链路（双极架构）</text>
  <text x="56" y="990" class="sm">终端智能极：说/拍/扫 → agent_orchestrator(LangGraph+LiteLLM) → DSL JSON</text>
  <text x="56" y="1010" class="sm">内核门禁极：graph(frozen) → rule(allow) → execution(Saga) → connector(httpx) → Legacy</text>
  <text x="56" y="1030" class="sm">禁止：Agent 直写 · graph/rule/execution/audit/connector 含 LLM · open-ended 自主 Agent</text>
  <text x="56" y="1050" class="hi">Harness 确认门 / dry_run 在 L3 · MCP tools/call 只产出 DslPlan · 不直写</text>
  <text x="56" y="1066" class="hi">D1 须同时满足 AC-BASE-001 52 P0 + AC-UX-001 P0</text>

  <!-- connector table -->
  <rect x="40" y="1090" width="1720" height="150" rx="8" fill="#ffffff" stroke="#2874a6" stroke-width="2"/>
  <text x="56" y="1118" class="bt">Connector 实现与 Path（Platform-L1）</text>
  <text x="56" y="1140" class="sm">Path A 哈森：conn-erp-kingdee-read/write + conn-dingtalk · Gate 0' 真实样本</text>
  <text x="56" y="1160" class="sm">Path B 通用：conn-mes-vendor-write + conn-erp-read · Bronze acme stub</text>
  <text x="56" y="1180" class="sm">Path C B-Lite：conn-mes-builtin · PG builtin_ledger 四表</text>
  <text x="56" y="1200" class="sm">其余 7 类 WMS/QMS/APS/PLM/CRM/CSM/OA：stub → Phase 2+ Pack</text>
  <text x="56" y="1220" class="hi">写级别 L0 只读 · L2 写+Revert · L3 通知 · 仅 execution_service 可 write()</text>

  <!-- ci -->
  <rect x="40" y="1256" width="1720" height="72" rx="8" fill="#eafaf1" stroke="#1e8449"/>
  <text x="56" y="1282" class="bt">CI 健身函数（W1 启用）</text>
  <text x="56" y="1302" class="sm">check_import_boundaries · check_openapi_schema_refs · check_cmv_sync · pytest AC-BASE-001 52 P0</text>
  <text x="56" y="1318" class="hi">uv workspace · Modular Monolith · Phase 3 前不拆微服务 · 禁止 Kafka Phase 1</text>

  <text x="900" y="1360" text-anchor="middle" class="t2">详见 文档/架构/技术架构图说明.md · ADR-001/002 · 2026-06-16</text>
</svg>