<?xml version="1.0" encoding="UTF-8"?>
<svg xmlns="http://www.w3.org/2000/svg" width="1800" height="1100" viewBox="0 0 1800 1100">
  <defs><style>
  text { font-family: "PingFang SC", "Heiti SC", "Microsoft YaHei", "Noto Sans CJK SC", sans-serif; }
  .t1 { font-size: 26px; font-weight: bold; fill: #1a252f; }
  .t2 { font-size: 13px; fill: #566573; }
  .zt { font-size: 14px; font-weight: bold; fill: #ffffff; }
  .bt { font-size: 12px; font-weight: bold; fill: #1a252f; }
  .sm { font-size: 11px; fill: #333333; }
  .hi { font-size: 10px; fill: #666666; }
</style></defs>
  <rect width="1800" height="1100" fill="#ffffff"/>
  <text x="900" y="40" text-anchor="middle" class="t1">FactoryOS 数据架构图</text>
  <text x="900" y="66" text-anchor="middle" class="t2">Data-L0 ~ L3 · 云映射 · 写路径 · 三路径 · 规模预埋 · v1.1 · ADR-007</text>

  <rect x="40" y="88" width="900" height="68" rx="8" fill="#E8DAEF" stroke="#566573" stroke-width="1.5"/>
  <text x="56" y="114" class="bt">Data-L3  分析/数据池（选配）</text>
  <text x="56" y="136" class="sm">全量同步 · 看板 · 跨系统汇总 — 非 Overlay 默认 · 需书面采购 · 客户信任 + D1 结案后</text>

  <rect x="40" y="172" width="900" height="68" rx="8" fill="#D6EAF8" stroke="#566573" stroke-width="1.5"/>
  <text x="56" y="198" class="bt">Data-L2  业务缓存（按需 · TTL · 最小字段）</text>
  <text x="56" y="220" class="sm">工单快照 · 查询加速 · Graph 孪生引用 — 能读 ERP 就不落库</text>

  <rect x="40" y="256" width="900" height="68" rx="8" fill="#D5F5E3" stroke="#566573" stroke-width="1.5"/>
  <text x="56" y="282" class="bt">Data-L1  运行数据（必做 · RDS 生产/测试）</text>
  <text x="56" y="304" class="sm">Graph/Rule 版本 · Audit · ExecutionRecord · ExecutionEvidence · 对账 · License · shadow_mode</text>

  <rect x="40" y="340" width="900" height="68" rx="8" fill="#FDEBD0" stroke="#566573" stroke-width="1.5"/>
  <text x="56" y="366" class="bt">Data-L0  客户账本（权威 · 不在 FactoryOS PG，Overlay 不替代）</text>
  <text x="56" y="388" class="sm">ERP · MES · WMS · OA … — Path C 时 builtin_ledger 表在 RDS 模拟 L0</text>

  <text x="490" y="160" text-anchor="middle" class="hi">信任后选配</text>
  <text x="490" y="244" text-anchor="middle" class="hi">Connector read / 写前快照</text>
  <text x="490" y="328" text-anchor="middle" class="hi">写成功后记录 + 对账</text>
  <line x1="490" y1="156" x2="490" y2="172" stroke="#7f8c8d" stroke-width="2"/>
  <line x1="490" y1="240" x2="490" y2="256" stroke="#7f8c8d" stroke-width="2"/>
  <line x1="490" y1="324" x2="490" y2="340" stroke="#7f8c8d" stroke-width="2"/>

  <rect x="980" y="88" width="780" height="320" rx="10" fill="#F8F9F9" stroke="#2E86AB" stroke-width="2"/>
  <text x="1370" y="120" text-anchor="middle" class="bt" fill="#1a5276">阿里云资源映射</text>
  <text x="1000" y="152" class="bt">RDS 生产 / RDS 测试</text>
  <text x="1020" y="172" class="sm">Data-L1 + L2 · 全表 tenant_id · RLS@S1</text>
  <text x="1000" y="200" class="bt">OSS 对象存储</text>
  <text x="1020" y="220" class="sm">语音/图片 · 30d TTL · 不进 PG</text>
  <text x="1000" y="248" class="bt">Redis / Tair</text>
  <text x="1020" y="268" class="sm">会话/限流 · S1 Redis Streams · Outbox Worker</text>
  <text x="1000" y="296" class="bt">GitLab（测试域 ECS）</text>
  <text x="1020" y="316" class="sm">源码 · OpenAPI v1.1.1 · 15 Schema 真源</text>
  <text x="1000" y="344" class="bt">客户 ERP/MES（出站 HTTPS）</text>
  <text x="1020" y="364" class="sm">Data-L0 权威 · Connector 读写 · Edge Agent 私网</text>
  <text x="1000" y="392" class="bt">W1 规模预埋表（ADR-007）</text>
  <text x="1020" y="412" class="sm">tenants.cell_id · connector_instances · outbox_events · tenant_quotas</text>

  <rect x="40" y="430" width="1720" height="64" rx="8" fill="#EBF5FB" stroke="#2E86AB" stroke-width="1.5"/>
  <text x="56" y="454" class="bt" fill="#1a5276">写操作数据流</text>
  <text x="56" y="474" class="sm">H5 → Harness 确认 → Agent(DSL JSON) → Rule → Execution → Connector write → Data-L0 · 并行 Audit+ExecutionRecord+Evidence → Data-L1</text>
  <text x="56" y="490" class="sm">对账 Job read-back 核对 L0 · Revert 读 before 快照 → Compensator → Connector 写回 L0</text>

  <rect x="40" y="510" width="840" height="200" rx="8" fill="#FEF9E7" stroke="#B7950B" stroke-width="1.5"/>
  <text x="56" y="538" class="bt">测试域 vs 生产域</text>
  <text x="56" y="562" class="sm">测试 RDS：联调/UAT · 7 天备份 · 可重建 · 禁止连生产库</text>
  <text x="56" y="582" class="sm">生产 RDS：Shadow/真实工人 · 15 天备份 · 哈森 tenant 数据</text>
  <text x="56" y="602" class="sm">测试 ECS：GitLab + Runner + staging + Redoc</text>
  <text x="56" y="622" class="sm">生产 ECS：SLB + Nginx + API（无 GitLab）</text>
  <text x="56" y="642" class="sm">Cursor / LiteLLM 研发：本机 + staging</text>
  <text x="56" y="662" class="sm">多模态媒体：API → OSS SDK · 30d 生命周期</text>
  <text x="56" y="690" class="hi">原则：事实落 L0 · 操作证明落 L1 · 不全量抄 ERP</text>

  <rect x="900" y="510" width="860" height="200" rx="8" fill="#EAFAF1" stroke="#1E8449" stroke-width="1.5"/>
  <text x="916" y="538" class="bt">三条切入 · 同一数据流内核</text>
  <text x="916" y="566" class="sm">A 哈森灯塔：ERP 读+写 + 钉钉 → 报工事实落客户 ERP</text>
  <text x="916" y="594" class="sm">B 通用 MES 厂：MES 写 + ERP 读 → 报工事实落 MES</text>
  <text x="916" y="622" class="sm">C B-Lite：conn-mes-builtin → 事实落 RDS builtin 表（模拟 L0）</text>
  <text x="916" y="650" class="sm">部署：Pool 共享 RDS+RLS · Bridge 独立 schema · Silo 独立 RDS</text>
  <text x="916" y="678" class="sm">S0 单 Cell · S1 百级 · S2 Cell 路由 max 200/Cell · S3 千级+</text>
  <text x="916" y="698" class="hi">扩展：新厂商 = 新 Connector Pack，不改 execution 内核</text>

  <rect x="40" y="728" width="1720" height="56" rx="8" fill="#f4ecf7" stroke="#8e44ad"/>
  <text x="56" y="752" class="bt">按客户类型数据策略</text>
  <text x="56" y="772" class="sm">A 有 ERP：L0=客户 ERP · L1 必做 · L2 按需最小 · L3 不默认  |  有 MES 厂：L0=ERP+MES · 同上  |  C B-Lite：L0=builtin 表 · L1 必做 · Y1 默认不销售</text>

  <text x="900" y="820" text-anchor="middle" class="hi">详见 文档/架构/数据架构图说明.md · 06-数据边界 · 10-阿里云 · 15-研发资源清单</text>
  <text x="900" y="840" text-anchor="middle" class="t2">FactoryOS Data Architecture · v1.1 · 2026-06-16</text>
</svg>