<?xml version="1.0" encoding="UTF-8"?>
<svg xmlns="http://www.w3.org/2000/svg" width="1800" height="2000" viewBox="0 0 1800 2000">
  <defs>
    <style>
  text { font-family: "PingFang SC", "Heiti SC", "Microsoft YaHei", "Noto Sans CJK SC", sans-serif; }
  .t1 { font-size: 26px; font-weight: bold; fill: #1a252f; }
  .t2 { font-size: 13px; fill: #566573; }
  .zt { font-size: 14px; font-weight: bold; fill: #ffffff; }
  .bt { font-size: 12px; font-weight: bold; fill: #1a252f; }
  .sm { font-size: 11px; fill: #333333; }
  .hi { font-size: 10px; fill: #666666; }
</style>
    <marker id="arr" markerWidth="8" markerHeight="8" refX="7" refY="3" orient="auto"><path d="M0,0 L8,3 L0,6 Z" fill="#34495e"/></marker>
  </defs>
  <rect width="1800" height="2000" fill="#fafbfc"/>
  <text x="900" y="42" text-anchor="middle" class="t1">FactoryOS 核心模块系统架构图</text>
  <text x="900" y="68" text-anchor="middle" class="t2">9 个 os_core 模块 · 依赖矩阵 · 写路径 · integration 外置 · v1.0 · 膨胀期守则</text>

  <!-- api -->
  <rect x="600" y="88" width="600" height="52" rx="8" fill="#d5e8d4" stroke="#82b366" stroke-width="2"/>
  <text x="900" y="120" text-anchor="middle" class="bt">apps/api — FastAPI HTTP 适配（路由/依赖注入/OpenAPI · 无业务规则）</text>

  <!-- L3/L2 entry -->
  <rect x="80" y="160" width="520" height="64" rx="8" fill="#fadbd8" stroke="#c0392b"/>
  <text x="96" y="186" class="bt">L3 入口</text>
  <text x="96" y="206" class="sm">web-admin · h5-worker → /v1/* API</text>
  <rect x="620" y="160" width="520" height="64" rx="8" fill="#fdebd0" stroke="#d68910"/>
  <text x="636" y="186" class="bt">L2 体验（含 LLM）</text>
  <text x="636" y="206" class="sm">agent_orchestrator · license_service</text>
  <rect x="1160" y="160" width="560" height="64" rx="8" fill="#d6eaf8" stroke="#2874a6"/>
  <text x="1176" y="186" class="bt">L1 连接 + MCP</text>
  <text x="1176" y="206" class="sm">connector_sdk · mcp_gateway</text>

  <!-- L0 core -->
  <rect x="80" y="248" width="1640" height="200" rx="10" fill="#d5f5e3" stroke="#1e8449" stroke-width="3"/>
  <rect x="80" y="248" width="1640" height="28" rx="10" fill="#1e8449"/>
  <text x="96" y="268" class="zt">L0 信任内核 — graph → rule → execution → audit（写路径主轴）</text>
  <rect x="96" y="288" width="360" height="140" rx="8" fill="#fff" stroke="#27ae60" stroke-width="2"/>
  <text x="108" y="312" class="bt">graph_service</text>
  <text x="108" y="332" class="sm">职责：Graph 版本生命周期</text>
  <text x="108" y="350" class="sm">draft → in_review → frozen</text>
  <text x="108" y="368" class="sm">扩展：clone 新版本 + freeze</text>
  <text x="108" y="386" class="sm">验收：未 freeze 执行 L2 写 → 409</text>
  <text x="108" y="404" class="hi">可调：shared_contracts, audit</text>
  <rect x="476" y="288" width="360" height="140" rx="8" fill="#fff" stroke="#27ae60" stroke-width="2"/>
  <text x="488" y="312" class="bt">rule_engine</text>
  <text x="488" y="332" class="sm">职责：授权判定 allow/deny</text>
  <text x="488" y="350" class="sm">默认拒绝 · 匹配 allow 才过</text>
  <text x="488" y="368" class="sm">扩展：新 RuleSet 版本/Pack</text>
  <text x="488" y="386" class="sm">验收：无 allow → 403</text>
  <text x="488" y="404" class="hi">可调：shared_contracts, audit</text>
  <rect x="856" y="288" width="400" height="140" rx="8" fill="#fff" stroke="#27ae60" stroke-width="3"/>
  <text x="868" y="312" class="bt">execution_service ★ 唯一写 Legacy</text>
  <text x="868" y="332" class="sm">Saga · Revert/Compensator · 幂等键</text>
  <text x="868" y="350" class="sm">Shadow/dry_run · 对账 read-back</text>
  <text x="868" y="368" class="sm">ExecutionEvidence 产出</text>
  <text x="868" y="386" class="sm">扩展：新 DSL 动词 + Connector 映射</text>
  <text x="868" y="404" class="hi">可调：shared_contracts, audit, connector公开面, rule/graph公开面</text>
  <rect x="1276" y="288" width="428" height="140" rx="8" fill="#fff" stroke="#27ae60" stroke-width="2"/>
  <text x="1288" y="312" class="bt">audit_service</text>
  <text x="1288" y="332" class="sm">append-only 操作日志</text>
  <text x="1288" y="350" class="sm">AuditEvent · 不可篡改</text>
  <text x="1288" y="368" class="sm">扩展：新 event_type</text>
  <text x="1288" y="386" class="sm">每次写 append 记录</text>
  <text x="1288" y="404" class="hi">可调：shared_contracts only</text>

  <!-- shared_contracts -->
  <rect x="80" y="468" width="1640" height="56" rx="8" fill="#ecf0f1" stroke="#95a5a6" stroke-width="2"/>
  <text x="96" y="492" class="bt">shared_contracts — 类型/Schema/错误码/tenant上下文/DomainEvent · 全模块基底</text>
  <text x="96" y="512" class="hi">禁止 import 任何其他 os_core 模块</text>

  <!-- L1 detail -->
  <rect x="80" y="544" width="800" height="120" rx="8" fill="#d6eaf8" stroke="#2874a6" stroke-width="2"/>
  <text x="96" y="570" class="bt">connector_sdk（L1）</text>
  <text x="96" y="590" class="sm">Registry：tenant → ConnectorInstance 解析</text>
  <text x="96" y="608" class="sm">Blueprint Runtime · httpx async · 10 LegacySystem + vendor</text>
  <text x="96" y="626" class="sm">扩展：新 Connector 类 + integration/catalog 注册</text>
  <text x="96" y="644" class="hi">禁止 import execution 私有 · 仅 shared_contracts</text>
  <rect x="920" y="544" width="800" height="120" rx="8" fill="#d6eaf8" stroke="#2874a6" stroke-width="2"/>
  <text x="936" y="570" class="bt">mcp_gateway（L1）</text>
  <text x="936" y="590" class="sm">CMV → MCP tools/list · tools/call → DslPlan</text>
  <text x="936" y="608" class="sm">治理型 Agent 接入 · SEP-414 trace</text>
  <text x="936" y="626" class="sm">Y1 末内部 GA · 禁止直写 Legacy</text>
  <text x="936" y="644" class="hi">可调：shared_contracts, agent 公开面 · 禁止 execution 私有</text>

  <!-- L2 detail -->
  <rect x="80" y="684" width="800" height="100" rx="8" fill="#fdebd0" stroke="#d68910" stroke-width="2"/>
  <text x="96" y="710" class="bt">agent_orchestrator（L2 · 唯一 LLM）</text>
  <text x="96" y="730" class="sm">LangGraph FSM → DSL 计划 JSON · Skill Pack 挂载</text>
  <text x="96" y="748" class="sm">扩展：新 Skill FSM · 禁止 connector.write</text>
  <text x="96" y="766" class="hi">仅输出计划 → execution 执行</text>
  <rect x="920" y="684" width="800" height="100" rx="8" fill="#fdebd0" stroke="#d68910" stroke-width="2"/>
  <text x="936" y="710" class="bt">license_service（L2）</text>
  <text x="936" y="730" class="sm">Pack 是否已授权 · pack_id 登记</text>
  <text x="936" y="748" class="sm">未授权 Pack → 403 hard deny</text>
  <text x="936" y="766" class="hi">可调：shared_contracts</text>

  <!-- integration -->
  <rect x="80" y="804" width="1640" height="88" rx="8" fill="#e8daef" stroke="#8e44ad" stroke-width="2" stroke-dasharray="6"/>
  <text x="96" y="830" class="bt">integration/（非 os_core · GIP 外置 · 集成团队维护）</text>
  <text x="96" y="850" class="sm">catalog/ Blueprint · packs/ Graph/Conn/Skill · tenants/ Override · tools/connector-agent/</text>
  <text x="96" y="870" class="hi">遵守 os_core-public-api · Runtime 通过 Registry 加载 · 不触发 Core major</text>

  <!-- write path arrows -->
  <rect x="80" y="912" width="1640" height="72" rx="8" fill="#ebf5fb" stroke="#117a65" stroke-width="2"/>
  <text x="96" y="938" class="bt" fill="#117a65">运行时写路径（模块调用序）</text>
  <text x="96" y="960" class="sm">api → agent(计划) → graph(校验frozen) → rule(evaluate) → execution(run) → connector_sdk(write) → Legacy/Data-L0</text>
  <text x="96" y="976" class="sm">并行：execution → audit(append) · mcp_gateway 产出 DslPlan 后仍走 rule→execution · 禁止任何旁路</text>

  <!-- dependency matrix -->
  <rect x="80" y="1004" width="1640" height="200" rx="8" fill="#ffffff" stroke="#2c3e50" stroke-width="2"/>
  <rect x="80" y="1004" width="1640" height="26" rx="8" fill="#2c3e50"/>
  <text x="96" y="1022" class="zt">模块依赖矩阵（膨胀期守则 §2 · CI 强制）</text>
  <text x="96" y="1050" class="sm">shared_contracts ← 全部模块 · audit ← graph/rule/execution</text>
  <text x="96" y="1070" class="sm">execution ← connector_sdk公开面 + rule公开面 + graph公开面</text>
  <text x="96" y="1090" class="sm">agent ← shared_contracts_contracts only（禁止 execution 内部写路径）</text>
  <text x="96" y="1110" class="sm">mcp_gateway ← shared_contracts + agent公开面 · connector ← shared_contracts_contracts only</text>
  <text x="96" y="1130" class="sm">跨模块仅通过 api.py/public/ 暴露 · apps/api 无业务规则 · integration/ 仅 Registry+BlueprintRuntime</text>
  <text x="96" y="1150" class="sm">禁止 extract L0 四模块为独立写服务 · connector_worker 不得持有写 Legacy 权限（ADR-007）</text>
  <text x="96" y="1170" class="hi">W1 预留 DomainEvent/outbox stub · S1 Redis Streams · 同进程函数调用 Core 1.0</text>

  <!-- capability matrix -->
  <rect x="80" y="1220" width="1640" height="200" rx="8" fill="#eafaf1" stroke="#1e8449" stroke-width="2"/>
  <text x="96" y="1248" class="bt">基座能力矩阵（模块 → 能力）</text>
  <text x="96" y="1272" class="sm">流程冻结 graph · 权限判定 rule · 受控写库 execution · 操作审计 audit · 撤回/幂等/试跑/对账 execution</text>
  <text x="96" y="1292" class="sm">多系统适配 connector · 自然语言入口 agent · Pack 授权 license · 治理型 MCP mcp_gateway</text>
  <text x="96" y="1312" class="sm">Gate 0：AC-BASE-001 52 P0 · tag core-v1.0.0 · 15 Schema + OpenAPI v1.1.1</text>
  <text x="96" y="1332" class="sm">可接工厂：上述 + 真实 Connector + frozen Graph · 不在基座：行业 Graph 内容/厂商协议细节</text>
  <text x="96" y="1352" class="sm">十个切入点：①Graph ②Rule ③Execution ④Connector ⑤Skill ⑥Harness ⑦freeze ⑧export ⑨新Pack ⑩import</text>
  <text x="96" y="1372" class="hi">完成标准见 16-OS核心基座 §9 · 能力追溯见 能力-模块包-模块追溯矩阵</text>

  <!-- external -->
  <rect x="80" y="1440" width="800" height="80" rx="8" fill="#fdedec" stroke="#e74c3c" stroke-dasharray="5"/>
  <text x="96" y="1466" class="bt">外部 Data-L0</text>
  <text x="96" y="1486" class="sm">ERP/MES/WMS/OA 或 builtin PG 表 · Connector 出站 HTTPS</text>
  <text x="96" y="1506" class="hi">Path A/B/C 仅 L1 目标不同</text>
  <rect x="920" y="1440" width="800" height="80" rx="8" fill="#fff2cc" stroke="#d6b656"/>
  <text x="936" y="1466" class="bt">Data-L1 RDS</text>
  <text x="936" y="1486" class="sm">Graph/Rule/Execution/Audit/Reconciliation · tenant_id 全表</text>
  <text x="936" y="1506" class="hi">PostgreSQL 16 · Alembic</text>

  <text x="900" y="1560" text-anchor="middle" class="t2">详见 文档/架构/核心模块架构图说明.md · 16-OS核心基座 §4 · ADR-001 · 2026-06-16</text>
</svg>